<?xml version="1.0" encoding="utf-8"?>
<!-- Generator: Adobe Illustrator 25.0.0, SVG Export Plug-In . SVG Version: 6.00 Build 0)  -->
<svg version="1.1" id="レイヤー_1" xmlns="http://www.w3.org/2000/svg" xmlns:xlink="http://www.w3.org/1999/xlink" x="0px"
	 y="0px" viewBox="0 0 500 500" style="enable-background:new 0 0 500 500;" xml:space="preserve">
<style type="text/css">
	.st0{fill:#4FAD8A;}
	.st1{fill:#4FAD8A;stroke:#FFFFFF;stroke-width:20;stroke-miterlimit:10;}
	.st2{fill:#FFFFFF;}
	.st3{clip-path:url(#SVGID_2_);fill:#FFFFFF;}
</style>
<circle class="st0" cx="250" cy="250" r="250"/>
<circle class="st1" cx="250" cy="250" r="225"/>
<g>
	<g>
		<path class="st2" d="M336.2,151.8v170.1h-63.8V151.8H336.2z M304.5,75.9c8.6,0,16.1,3,22.4,9.1c6.3,6.1,9.5,13.3,9.5,21.6
			c0,8.9-3,16.2-9,21.8c-6,5.7-13.6,8.5-22.9,8.5c-9.3,0-17-2.8-22.9-8.5c-6-5.7-9-13-9-21.8c0-8.3,3.2-15.5,9.5-21.6
			C288.4,78.9,295.9,75.9,304.5,75.9z"/>
		<g>
			<g>
				<path class="st2" d="M263.3,275.6v58.3c-9.2,3.4-18,5.1-26.3,5.1c-20.5,0-37.9-7.8-52.1-23.3c-14.2-15.5-21.3-34.5-21.3-56.9
					c0-24.2,8.6-44.7,25.7-61.3c17.1-16.7,38.1-25,63-25c13.3,0,25.9,2.7,38.1,8c12.1,5.3,21.6,12.5,28.5,21.4
					c11.6,14.8,17.3,36.4,17.3,64.6v55.7c0,30.2-8.6,54.8-25.7,73.7c-17.2,18.9-39.5,28.3-67,28.3c-8.4,0-19-2.1-31.8-6.3v-57.8
					c8.3,4.5,16.7,6.8,25.1,6.8c11.4,0,20.3-3.8,26.5-11.3c6.2-7.5,9.3-18.3,9.3-32.4v-63.7c0-17.8-7.2-26.7-21.6-26.7
					c-6.1,0-11.5,2.4-16.1,7.1c-4.6,4.7-6.9,10.1-6.9,16.2c0,6.5,2.2,11.8,6.5,16.1c4.4,4.3,9.8,6.5,16.2,6.5
					C255.2,278.7,259.4,277.7,263.3,275.6z"/>
			</g>
		</g>
	</g>
	<g>
		<defs>
			<rect id="SVGID_1_" x="134.7" y="141.2" width="107.6" height="118.2"/>
		</defs>
		<clipPath id="SVGID_2_">
			<use xlink:href="#SVGID_1_"  style="overflow:visible;"/>
		</clipPath>
		<path class="st3" d="M154.2,148.9c22.5,0,40.5,7.3,53.9,22c13.5,14.7,20.2,34.3,20.2,59v93.3h-64v-81c0-17.8-5.8-26.7-17.5-26.7
			c-3.7,0-7.7,1.3-12.2,3.8v-68.5C142.7,149.5,149.2,148.9,154.2,148.9z"/>
	</g>
</g>
</svg>
